<svg width="14" height="14" viewBox="0 0 14 14" fill="none" xmlns="http://www.w3.org/2000/svg">
<path d="M9.05942 10.6834L6.99967 8.62367L4.93992 10.6834L3.31592 9.05942L5.37567 6.99967L3.31592 4.93992L4.93992 3.31592L6.99967 5.37567L9.05942 3.31592L10.6834 4.93992L8.62367 6.99967L10.6834 9.05942L9.05942 10.6834Z" fill="#BF0404"/>
<path d="M14 7C14 8.85652 13.2625 10.637 11.9497 11.9497C10.637 13.2625 8.85652 14 7 14C5.14348 14 3.36301 13.2625 2.05025 11.9497C0.737498 10.637 0 8.85652 0 7C0 5.14348 0.737498 3.36301 2.05025 2.05025C3.36301 0.737498 5.14348 0 7 0C8.85652 0 10.637 0.737498 11.9497 2.05025C13.2625 3.36301 14 5.14348 14 7V7ZM12.25 7C12.25 5.60761 11.6969 4.27226 10.7123 3.28769C9.72775 2.30312 8.39239 1.75 7 1.75C5.60761 1.75 4.27226 2.30312 3.28769 3.28769C2.30312 4.27226 1.75 5.60761 1.75 7C1.75 8.39239 2.30312 9.72775 3.28769 10.7123C4.27226 11.6969 5.60761 12.25 7 12.25C8.39239 12.25 9.72775 11.6969 10.7123 10.7123C11.6969 9.72775 12.25 8.39239 12.25 7Z" fill="#BF0404"/>
</svg>
