<svg width="24" height="24" viewBox="0 0 24 24" fill="none" xmlns="http://www.w3.org/2000/svg">
<path d="M5.50004 15C6.37469 14.9974 7.21626 14.6653 7.85704 14.07L14.117 17.647C13.9073 18.4666 13.9998 19.3343 14.3775 20.0913C14.7552 20.8483 15.393 21.444 16.174 21.7692C16.955 22.0944 17.827 22.1275 18.6304 21.8623C19.4338 21.5971 20.1148 21.0515 20.5488 20.3253C20.9827 19.599 21.1406 18.7408 20.9935 17.9077C20.8464 17.0745 20.4042 16.3222 19.7478 15.7885C19.0914 15.2548 18.2647 14.9754 17.419 15.0013C16.5734 15.0273 15.7655 15.357 15.143 15.93L8.88304 12.353C8.94904 12.103 8.98504 11.844 8.99104 11.585L15.141 8.06999C15.7332 8.60877 16.4927 8.9275 17.292 8.97271C18.0913 9.01792 18.8818 8.78687 19.531 8.31831C20.1802 7.84975 20.6484 7.1722 20.8572 6.39932C21.0661 5.62643 21.0027 4.80525 20.6779 4.07353C20.353 3.34181 19.7864 2.74407 19.0731 2.38059C18.3597 2.01711 17.5431 1.91001 16.7602 2.07726C15.9772 2.2445 15.2756 2.67591 14.7731 3.29912C14.2705 3.92232 13.9976 4.6994 14 5.49999C14.004 5.78799 14.043 6.075 14.117 6.353L8.43304 9.6C8.10341 9.09006 7.6468 8.67464 7.10805 8.39457C6.56931 8.1145 5.96697 7.9794 5.36021 8.00255C4.75346 8.0257 4.16316 8.2063 3.64732 8.52661C3.13148 8.84692 2.70785 9.29592 2.41804 9.82949C2.12823 10.3631 1.98222 10.9628 1.99435 11.5699C2.00648 12.177 2.17634 12.7705 2.48723 13.292C2.79812 13.8136 3.23936 14.2453 3.76758 14.5448C4.2958 14.8442 4.89284 15.0011 5.50004 15Z" fill="white"/>
</svg>
